<?xml version="1.0" encoding="utf-8" standalone="no"?>
<!DOCTYPE svg PUBLIC "-//W3C//DTD SVG 1.1//EN"
  "http://www.w3.org/Graphics/SVG/1.1/DTD/svg11.dtd">
<!-- Created with matplotlib (http://matplotlib.org/) -->
<svg height="345.6pt" version="1.1" viewBox="0 0 460.8 345.6" width="460.8pt" xmlns="http://www.w3.org/2000/svg" xmlns:xlink="http://www.w3.org/1999/xlink">
 <defs>
  <style type="text/css">
*{stroke-linecap:butt;stroke-linejoin:round;}
  </style>
 </defs>
 <g id="figure_1">
  <g id="patch_1">
   <path d="M 0 345.6 
L 460.8 345.6 
L 460.8 0 
L 0 0 
z
" style="fill:#ffffff;"/>
  </g>
  <g id="axes_1">
   <g id="patch_2">
    <path d="M 57.6 307.584 
L 414.72 307.584 
L 414.72 41.472 
L 57.6 41.472 
z
" style="fill:#ffffff;"/>
   </g>
   <g id="matplotlib.axis_1">
    <g id="xtick_1">
     <g id="line2d_1">
      <path clip-path="url(#p2914f9fe14)" d="M 99.463349 307.584 
L 99.463349 41.472 
" style="fill:none;stroke:#808080;stroke-dasharray:2.96,1.28;stroke-dashoffset:0;stroke-width:0.8;"/>
     </g>
     <g id="line2d_2">
      <defs>
       <path d="M 0 0 
L 0 3.5 
" id="m7d525538f5" style="stroke:#000000;stroke-width:0.8;"/>
      </defs>
      <g>
       <use style="stroke:#000000;stroke-width:0.8;" x="99.463349" xlink:href="#m7d525538f5" y="307.584"/>
      </g>
     </g>
     <g id="text_1">
      <!-- 1960 -->
      <defs>
       <path d="M 12.40625 8.296875 
L 28.515625 8.296875 
L 28.515625 63.921875 
L 10.984375 60.40625 
L 10.984375 69.390625 
L 28.421875 72.90625 
L 38.28125 72.90625 
L 38.28125 8.296875 
L 54.390625 8.296875 
L 54.390625 0 
L 12.40625 0 
z
" id="DejaVuSans-31"/>
       <path d="M 10.984375 1.515625 
L 10.984375 10.5 
Q 14.703125 8.734375 18.5 7.8125 
Q 22.3125 6.890625 25.984375 6.890625 
Q 35.75 6.890625 40.890625 13.453125 
Q 46.046875 20.015625 46.78125 33.40625 
Q 43.953125 29.203125 39.59375 26.953125 
Q 35.25 24.703125 29.984375 24.703125 
Q 19.046875 24.703125 12.671875 31.3125 
Q 6.296875 37.9375 6.296875 49.421875 
Q 6.296875 60.640625 12.9375 67.421875 
Q 19.578125 74.21875 30.609375 74.21875 
Q 43.265625 74.21875 49.921875 64.515625 
Q 56.59375 54.828125 56.59375 36.375 
Q 56.59375 19.140625 48.40625 8.859375 
Q 40.234375 -1.421875 26.421875 -1.421875 
Q 22.703125 -1.421875 18.890625 -0.6875 
Q 15.09375 0.046875 10.984375 1.515625 
z
M 30.609375 32.421875 
Q 37.25 32.421875 41.125 36.953125 
Q 45.015625 41.5 45.015625 49.421875 
Q 45.015625 57.28125 41.125 61.84375 
Q 37.25 66.40625 30.609375 66.40625 
Q 23.96875 66.40625 20.09375 61.84375 
Q 16.21875 57.28125 16.21875 49.421875 
Q 16.21875 41.5 20.09375 36.953125 
Q 23.96875 32.421875 30.609375 32.421875 
z
" id="DejaVuSans-39"/>
       <path d="M 33.015625 40.375 
Q 26.375 40.375 22.484375 35.828125 
Q 18.609375 31.296875 18.609375 23.390625 
Q 18.609375 15.53125 22.484375 10.953125 
Q 26.375 6.390625 33.015625 6.390625 
Q 39.65625 6.390625 43.53125 10.953125 
Q 47.40625 15.53125 47.40625 23.390625 
Q 47.40625 31.296875 43.53125 35.828125 
Q 39.65625 40.375 33.015625 40.375 
z
M 52.59375 71.296875 
L 52.59375 62.3125 
Q 48.875 64.0625 45.09375 64.984375 
Q 41.3125 65.921875 37.59375 65.921875 
Q 27.828125 65.921875 22.671875 59.328125 
Q 17.53125 52.734375 16.796875 39.40625 
Q 19.671875 43.65625 24.015625 45.921875 
Q 28.375 48.1875 33.59375 48.1875 
Q 44.578125 48.1875 50.953125 41.515625 
Q 57.328125 34.859375 57.328125 23.390625 
Q 57.328125 12.15625 50.6875 5.359375 
Q 44.046875 -1.421875 33.015625 -1.421875 
Q 20.359375 -1.421875 13.671875 8.265625 
Q 6.984375 17.96875 6.984375 36.375 
Q 6.984375 53.65625 15.1875 63.9375 
Q 23.390625 74.21875 37.203125 74.21875 
Q 40.921875 74.21875 44.703125 73.484375 
Q 48.484375 72.75 52.59375 71.296875 
z
" id="DejaVuSans-36"/>
       <path d="M 31.78125 66.40625 
Q 24.171875 66.40625 20.328125 58.90625 
Q 16.5 51.421875 16.5 36.375 
Q 16.5 21.390625 20.328125 13.890625 
Q 24.171875 6.390625 31.78125 6.390625 
Q 39.453125 6.390625 43.28125 13.890625 
Q 47.125 21.390625 47.125 36.375 
Q 47.125 51.421875 43.28125 58.90625 
Q 39.453125 66.40625 31.78125 66.40625 
z
M 31.78125 74.21875 
Q 44.046875 74.21875 50.515625 64.515625 
Q 56.984375 54.828125 56.984375 36.375 
Q 56.984375 17.96875 50.515625 8.265625 
Q 44.046875 -1.421875 31.78125 -1.421875 
Q 19.53125 -1.421875 13.0625 8.265625 
Q 6.59375 17.96875 6.59375 36.375 
Q 6.59375 54.828125 13.0625 64.515625 
Q 19.53125 74.21875 31.78125 74.21875 
z
" id="DejaVuSans-30"/>
      </defs>
      <g transform="translate(86.738349 322.182437)scale(0.1 -0.1)">
       <use xlink:href="#DejaVuSans-31"/>
       <use x="63.623047" xlink:href="#DejaVuSans-39"/>
       <use x="127.246094" xlink:href="#DejaVuSans-36"/>
       <use x="190.869141" xlink:href="#DejaVuSans-30"/>
      </g>
     </g>
    </g>
    <g id="xtick_2">
     <g id="line2d_3">
      <path clip-path="url(#p2914f9fe14)" d="M 142.181053 307.584 
L 142.181053 41.472 
" style="fill:none;stroke:#808080;stroke-dasharray:2.96,1.28;stroke-dashoffset:0;stroke-width:0.8;"/>
     </g>
     <g id="line2d_4">
      <g>
       <use style="stroke:#000000;stroke-width:0.8;" x="142.181053" xlink:href="#m7d525538f5" y="307.584"/>
      </g>
     </g>
     <g id="text_2">
      <!-- 1980 -->
      <defs>
       <path d="M 31.78125 34.625 
Q 24.75 34.625 20.71875 30.859375 
Q 16.703125 27.09375 16.703125 20.515625 
Q 16.703125 13.921875 20.71875 10.15625 
Q 24.75 6.390625 31.78125 6.390625 
Q 38.8125 6.390625 42.859375 10.171875 
Q 46.921875 13.96875 46.921875 20.515625 
Q 46.921875 27.09375 42.890625 30.859375 
Q 38.875 34.625 31.78125 34.625 
z
M 21.921875 38.8125 
Q 15.578125 40.375 12.03125 44.71875 
Q 8.5 49.078125 8.5 55.328125 
Q 8.5 64.0625 14.71875 69.140625 
Q 20.953125 74.21875 31.78125 74.21875 
Q 42.671875 74.21875 48.875 69.140625 
Q 55.078125 64.0625 55.078125 55.328125 
Q 55.078125 49.078125 51.53125 44.71875 
Q 48 40.375 41.703125 38.8125 
Q 48.828125 37.15625 52.796875 32.3125 
Q 56.78125 27.484375 56.78125 20.515625 
Q 56.78125 9.90625 50.3125 4.234375 
Q 43.84375 -1.421875 31.78125 -1.421875 
Q 19.734375 -1.421875 13.25 4.234375 
Q 6.78125 9.90625 6.78125 20.515625 
Q 6.78125 27.484375 10.78125 32.3125 
Q 14.796875 37.15625 21.921875 38.8125 
z
M 18.3125 54.390625 
Q 18.3125 48.734375 21.84375 45.5625 
Q 25.390625 42.390625 31.78125 42.390625 
Q 38.140625 42.390625 41.71875 45.5625 
Q 45.3125 48.734375 45.3125 54.390625 
Q 45.3125 60.0625 41.71875 63.234375 
Q 38.140625 66.40625 31.78125 66.40625 
Q 25.390625 66.40625 21.84375 63.234375 
Q 18.3125 60.0625 18.3125 54.390625 
z
" id="DejaVuSans-38"/>
      </defs>
      <g transform="translate(129.456053 322.182437)scale(0.1 -0.1)">
       <use xlink:href="#DejaVuSans-31"/>
       <use x="63.623047" xlink:href="#DejaVuSans-39"/>
       <use x="127.246094" xlink:href="#DejaVuSans-38"/>
       <use x="190.869141" xlink:href="#DejaVuSans-30"/>
      </g>
     </g>
    </g>
    <g id="xtick_3">
     <g id="line2d_5">
      <path clip-path="url(#p2914f9fe14)" d="M 184.898756 307.584 
L 184.898756 41.472 
" style="fill:none;stroke:#808080;stroke-dasharray:2.96,1.28;stroke-dashoffset:0;stroke-width:0.8;"/>
     </g>
     <g id="line2d_6">
      <g>
       <use style="stroke:#000000;stroke-width:0.8;" x="184.898756" xlink:href="#m7d525538f5" y="307.584"/>
      </g>
     </g>
     <g id="text_3">
      <!-- 2000 -->
      <defs>
       <path d="M 19.1875 8.296875 
L 53.609375 8.296875 
L 53.609375 0 
L 7.328125 0 
L 7.328125 8.296875 
Q 12.9375 14.109375 22.625 23.890625 
Q 32.328125 33.6875 34.8125 36.53125 
Q 39.546875 41.84375 41.421875 45.53125 
Q 43.3125 49.21875 43.3125 52.78125 
Q 43.3125 58.59375 39.234375 62.25 
Q 35.15625 65.921875 28.609375 65.921875 
Q 23.96875 65.921875 18.8125 64.3125 
Q 13.671875 62.703125 7.8125 59.421875 
L 7.8125 69.390625 
Q 13.765625 71.78125 18.9375 73 
Q 24.125 74.21875 28.421875 74.21875 
Q 39.75 74.21875 46.484375 68.546875 
Q 53.21875 62.890625 53.21875 53.421875 
Q 53.21875 48.921875 51.53125 44.890625 
Q 49.859375 40.875 45.40625 35.40625 
Q 44.1875 33.984375 37.640625 27.21875 
Q 31.109375 20.453125 19.1875 8.296875 
z
" id="DejaVuSans-32"/>
      </defs>
      <g transform="translate(172.173756 322.182437)scale(0.1 -0.1)">
       <use xlink:href="#DejaVuSans-32"/>
       <use x="63.623047" xlink:href="#DejaVuSans-30"/>
       <use x="127.246094" xlink:href="#DejaVuSans-30"/>
       <use x="190.869141" xlink:href="#DejaVuSans-30"/>
      </g>
     </g>
    </g>
    <g id="xtick_4">
     <g id="line2d_7">
      <path clip-path="url(#p2914f9fe14)" d="M 227.616459 307.584 
L 227.616459 41.472 
" style="fill:none;stroke:#808080;stroke-dasharray:2.96,1.28;stroke-dashoffset:0;stroke-width:0.8;"/>
     </g>
     <g id="line2d_8">
      <g>
       <use style="stroke:#000000;stroke-width:0.8;" x="227.616459" xlink:href="#m7d525538f5" y="307.584"/>
      </g>
     </g>
     <g id="text_4">
      <!-- 2020 -->
      <g transform="translate(214.891459 322.182437)scale(0.1 -0.1)">
       <use xlink:href="#DejaVuSans-32"/>
       <use x="63.623047" xlink:href="#DejaVuSans-30"/>
       <use x="127.246094" xlink:href="#DejaVuSans-32"/>
       <use x="190.869141" xlink:href="#DejaVuSans-30"/>
      </g>
     </g>
    </g>
    <g id="xtick_5">
     <g id="line2d_9">
      <path clip-path="url(#p2914f9fe14)" d="M 270.334163 307.584 
L 270.334163 41.472 
" style="fill:none;stroke:#808080;stroke-dasharray:2.96,1.28;stroke-dashoffset:0;stroke-width:0.8;"/>
     </g>
     <g id="line2d_10">
      <g>
       <use style="stroke:#000000;stroke-width:0.8;" x="270.334163" xlink:href="#m7d525538f5" y="307.584"/>
      </g>
     </g>
     <g id="text_5">
      <!-- 2040 -->
      <defs>
       <path d="M 37.796875 64.3125 
L 12.890625 25.390625 
L 37.796875 25.390625 
z
M 35.203125 72.90625 
L 47.609375 72.90625 
L 47.609375 25.390625 
L 58.015625 25.390625 
L 58.015625 17.1875 
L 47.609375 17.1875 
L 47.609375 0 
L 37.796875 0 
L 37.796875 17.1875 
L 4.890625 17.1875 
L 4.890625 26.703125 
z
" id="DejaVuSans-34"/>
      </defs>
      <g transform="translate(257.609163 322.182437)scale(0.1 -0.1)">
       <use xlink:href="#DejaVuSans-32"/>
       <use x="63.623047" xlink:href="#DejaVuSans-30"/>
       <use x="127.246094" xlink:href="#DejaVuSans-34"/>
       <use x="190.869141" xlink:href="#DejaVuSans-30"/>
      </g>
     </g>
    </g>
    <g id="xtick_6">
     <g id="line2d_11">
      <path clip-path="url(#p2914f9fe14)" d="M 313.051866 307.584 
L 313.051866 41.472 
" style="fill:none;stroke:#808080;stroke-dasharray:2.96,1.28;stroke-dashoffset:0;stroke-width:0.8;"/>
     </g>
     <g id="line2d_12">
      <g>
       <use style="stroke:#000000;stroke-width:0.8;" x="313.051866" xlink:href="#m7d525538f5" y="307.584"/>
      </g>
     </g>
     <g id="text_6">
      <!-- 2060 -->
      <g transform="translate(300.326866 322.182437)scale(0.1 -0.1)">
       <use xlink:href="#DejaVuSans-32"/>
       <use x="63.623047" xlink:href="#DejaVuSans-30"/>
       <use x="127.246094" xlink:href="#DejaVuSans-36"/>
       <use x="190.869141" xlink:href="#DejaVuSans-30"/>
      </g>
     </g>
    </g>
    <g id="xtick_7">
     <g id="line2d_13">
      <path clip-path="url(#p2914f9fe14)" d="M 355.769569 307.584 
L 355.769569 41.472 
" style="fill:none;stroke:#808080;stroke-dasharray:2.96,1.28;stroke-dashoffset:0;stroke-width:0.8;"/>
     </g>
     <g id="line2d_14">
      <g>
       <use style="stroke:#000000;stroke-width:0.8;" x="355.769569" xlink:href="#m7d525538f5" y="307.584"/>
      </g>
     </g>
     <g id="text_7">
      <!-- 2080 -->
      <g transform="translate(343.044569 322.182437)scale(0.1 -0.1)">
       <use xlink:href="#DejaVuSans-32"/>
       <use x="63.623047" xlink:href="#DejaVuSans-30"/>
       <use x="127.246094" xlink:href="#DejaVuSans-38"/>
       <use x="190.869141" xlink:href="#DejaVuSans-30"/>
      </g>
     </g>
    </g>
    <g id="xtick_8">
     <g id="line2d_15">
      <path clip-path="url(#p2914f9fe14)" d="M 398.487273 307.584 
L 398.487273 41.472 
" style="fill:none;stroke:#808080;stroke-dasharray:2.96,1.28;stroke-dashoffset:0;stroke-width:0.8;"/>
     </g>
     <g id="line2d_16">
      <g>
       <use style="stroke:#000000;stroke-width:0.8;" x="398.487273" xlink:href="#m7d525538f5" y="307.584"/>
      </g>
     </g>
     <g id="text_8">
      <!-- 2100 -->
      <g transform="translate(385.762273 322.182437)scale(0.1 -0.1)">
       <use xlink:href="#DejaVuSans-32"/>
       <use x="63.623047" xlink:href="#DejaVuSans-31"/>
       <use x="127.246094" xlink:href="#DejaVuSans-30"/>
       <use x="190.869141" xlink:href="#DejaVuSans-30"/>
      </g>
     </g>
    </g>
    <g id="text_9">
     <!-- year -->
     <defs>
      <path d="M 21.578125 -9.515625 
L 25 -0.875 
L 5.609375 46.6875 
L -0.296875 46.6875 
L -0.296875 51.90625 
L 23.578125 51.90625 
L 23.578125 46.6875 
L 15.28125 46.6875 
L 29.890625 10.984375 
L 44.484375 46.6875 
L 36.71875 46.6875 
L 36.71875 51.90625 
L 56.203125 51.90625 
L 56.203125 46.6875 
L 50.390625 46.6875 
L 26.609375 -11.71875 
Q 24.171875 -17.78125 21.1875 -20 
Q 18.21875 -22.21875 12.796875 -22.21875 
Q 10.5 -22.21875 8.078125 -21.828125 
Q 5.671875 -21.4375 3.21875 -20.703125 
L 3.21875 -10.796875 
L 7.8125 -10.796875 
Q 8.109375 -14.109375 9.5 -15.546875 
Q 10.890625 -17 13.8125 -17 
Q 16.5 -17 18.140625 -15.5 
Q 19.78125 -14.015625 21.578125 -9.515625 
z
" id="DejaVuSerif-79"/>
      <path d="M 54.203125 25 
L 15.484375 25 
L 15.484375 24.609375 
Q 15.484375 14.109375 19.4375 8.765625 
Q 23.390625 3.421875 31.109375 3.421875 
Q 37.015625 3.421875 40.796875 6.515625 
Q 44.578125 9.625 46.09375 15.71875 
L 53.328125 15.71875 
Q 51.171875 7.171875 45.375 2.875 
Q 39.59375 -1.421875 30.171875 -1.421875 
Q 18.796875 -1.421875 11.890625 6.078125 
Q 4.984375 13.578125 4.984375 25.984375 
Q 4.984375 38.28125 11.765625 45.796875 
Q 18.5625 53.328125 29.59375 53.328125 
Q 41.359375 53.328125 47.65625 46.0625 
Q 53.953125 38.8125 54.203125 25 
z
M 43.609375 30.171875 
Q 43.3125 39.265625 39.765625 43.875 
Q 36.234375 48.484375 29.59375 48.484375 
Q 23.390625 48.484375 19.828125 43.84375 
Q 16.265625 39.203125 15.484375 30.171875 
z
" id="DejaVuSerif-65"/>
      <path d="M 39.796875 16.3125 
L 39.796875 27.296875 
L 28.21875 27.296875 
Q 21.53125 27.296875 18.25 24.40625 
Q 14.984375 21.53125 14.984375 15.578125 
Q 14.984375 10.15625 18.296875 6.984375 
Q 21.625 3.8125 27.296875 3.8125 
Q 32.90625 3.8125 36.34375 7.28125 
Q 39.796875 10.75 39.796875 16.3125 
z
M 48.78125 32.421875 
L 48.78125 5.171875 
L 56.78125 5.171875 
L 56.78125 0 
L 39.796875 0 
L 39.796875 5.609375 
Q 36.8125 2 32.90625 0.28125 
Q 29 -1.421875 23.78125 -1.421875 
Q 15.140625 -1.421875 10.0625 3.171875 
Q 4.984375 7.765625 4.984375 15.578125 
Q 4.984375 23.640625 10.796875 28.078125 
Q 16.609375 32.515625 27.203125 32.515625 
L 39.796875 32.515625 
L 39.796875 36.078125 
Q 39.796875 42 36.203125 45.234375 
Q 32.625 48.484375 26.125 48.484375 
Q 20.75 48.484375 17.578125 46.046875 
Q 14.40625 43.609375 13.625 38.8125 
L 8.984375 38.8125 
L 8.984375 49.3125 
Q 13.671875 51.3125 18.09375 52.3125 
Q 22.515625 53.328125 26.703125 53.328125 
Q 37.5 53.328125 43.140625 47.96875 
Q 48.78125 42.625 48.78125 32.421875 
z
" id="DejaVuSerif-61"/>
      <path d="M 47.796875 52 
L 47.796875 39.015625 
L 42.625 39.015625 
Q 42.390625 42.875 40.484375 44.78125 
Q 38.578125 46.6875 34.90625 46.6875 
Q 28.265625 46.6875 24.71875 42.09375 
Q 21.1875 37.5 21.1875 28.90625 
L 21.1875 5.171875 
L 31.59375 5.171875 
L 31.59375 0 
L 4.109375 0 
L 4.109375 5.171875 
L 12.203125 5.171875 
L 12.203125 46.78125 
L 3.609375 46.78125 
L 3.609375 51.90625 
L 21.1875 51.90625 
L 21.1875 42.671875 
Q 23.828125 48.09375 27.96875 50.703125 
Q 32.125 53.328125 38.09375 53.328125 
Q 40.28125 53.328125 42.703125 52.984375 
Q 45.125 52.640625 47.796875 52 
z
" id="DejaVuSerif-72"/>
     </defs>
     <g transform="translate(220.542344 338.700875)scale(0.14 -0.14)">
      <use xlink:href="#DejaVuSerif-79"/>
      <use x="56.494141" xlink:href="#DejaVuSerif-65"/>
      <use x="115.673828" xlink:href="#DejaVuSerif-61"/>
      <use x="175.292969" xlink:href="#DejaVuSerif-72"/>
     </g>
    </g>
   </g>
   <g id="matplotlib.axis_2">
    <g id="ytick_1">
     <g id="line2d_17">
      <path clip-path="url(#p2914f9fe14)" d="M 57.6 303.683638 
L 414.72 303.683638 
" style="fill:none;stroke:#808080;stroke-dasharray:2.96,1.28;stroke-dashoffset:0;stroke-width:0.8;"/>
     </g>
     <g id="line2d_18">
      <defs>
       <path d="M 0 0 
L -3.5 0 
" id="m659b18e288" style="stroke:#000000;stroke-width:0.8;"/>
      </defs>
      <g>
       <use style="stroke:#000000;stroke-width:0.8;" x="57.6" xlink:href="#m659b18e288" y="303.683638"/>
      </g>
     </g>
     <g id="text_10">
      <!-- 4.4 -->
      <defs>
       <path d="M 10.6875 12.40625 
L 21 12.40625 
L 21 0 
L 10.6875 0 
z
" id="DejaVuSans-2e"/>
      </defs>
      <g transform="translate(34.696875 307.482857)scale(0.1 -0.1)">
       <use xlink:href="#DejaVuSans-34"/>
       <use x="63.623047" xlink:href="#DejaVuSans-2e"/>
       <use x="95.410156" xlink:href="#DejaVuSans-34"/>
      </g>
     </g>
    </g>
    <g id="ytick_2">
     <g id="line2d_19">
      <path clip-path="url(#p2914f9fe14)" d="M 57.6 272.978026 
L 414.72 272.978026 
" style="fill:none;stroke:#808080;stroke-dasharray:2.96,1.28;stroke-dashoffset:0;stroke-width:0.8;"/>
     </g>
     <g id="line2d_20">
      <g>
       <use style="stroke:#000000;stroke-width:0.8;" x="57.6" xlink:href="#m659b18e288" y="272.978026"/>
      </g>
     </g>
     <g id="text_11">
      <!-- 4.6 -->
      <g transform="translate(34.696875 276.777245)scale(0.1 -0.1)">
       <use xlink:href="#DejaVuSans-34"/>
       <use x="63.623047" xlink:href="#DejaVuSans-2e"/>
       <use x="95.410156" xlink:href="#DejaVuSans-36"/>
      </g>
     </g>
    </g>
    <g id="ytick_3">
     <g id="line2d_21">
      <path clip-path="url(#p2914f9fe14)" d="M 57.6 242.272414 
L 414.72 242.272414 
" style="fill:none;stroke:#808080;stroke-dasharray:2.96,1.28;stroke-dashoffset:0;stroke-width:0.8;"/>
     </g>
     <g id="line2d_22">
      <g>
       <use style="stroke:#000000;stroke-width:0.8;" x="57.6" xlink:href="#m659b18e288" y="242.272414"/>
      </g>
     </g>
     <g id="text_12">
      <!-- 4.8 -->
      <g transform="translate(34.696875 246.071633)scale(0.1 -0.1)">
       <use xlink:href="#DejaVuSans-34"/>
       <use x="63.623047" xlink:href="#DejaVuSans-2e"/>
       <use x="95.410156" xlink:href="#DejaVuSans-38"/>
      </g>
     </g>
    </g>
    <g id="ytick_4">
     <g id="line2d_23">
      <path clip-path="url(#p2914f9fe14)" d="M 57.6 211.566802 
L 414.72 211.566802 
" style="fill:none;stroke:#808080;stroke-dasharray:2.96,1.28;stroke-dashoffset:0;stroke-width:0.8;"/>
     </g>
     <g id="line2d_24">
      <g>
       <use style="stroke:#000000;stroke-width:0.8;" x="57.6" xlink:href="#m659b18e288" y="211.566802"/>
      </g>
     </g>
     <g id="text_13">
      <!-- 5.0 -->
      <defs>
       <path d="M 10.796875 72.90625 
L 49.515625 72.90625 
L 49.515625 64.59375 
L 19.828125 64.59375 
L 19.828125 46.734375 
Q 21.96875 47.46875 24.109375 47.828125 
Q 26.265625 48.1875 28.421875 48.1875 
Q 40.625 48.1875 47.75 41.5 
Q 54.890625 34.8125 54.890625 23.390625 
Q 54.890625 11.625 47.5625 5.09375 
Q 40.234375 -1.421875 26.90625 -1.421875 
Q 22.3125 -1.421875 17.546875 -0.640625 
Q 12.796875 0.140625 7.71875 1.703125 
L 7.71875 11.625 
Q 12.109375 9.234375 16.796875 8.0625 
Q 21.484375 6.890625 26.703125 6.890625 
Q 35.15625 6.890625 40.078125 11.328125 
Q 45.015625 15.765625 45.015625 23.390625 
Q 45.015625 31 40.078125 35.4375 
Q 35.15625 39.890625 26.703125 39.890625 
Q 22.75 39.890625 18.8125 39.015625 
Q 14.890625 38.140625 10.796875 36.28125 
z
" id="DejaVuSans-35"/>
      </defs>
      <g transform="translate(34.696875 215.36602)scale(0.1 -0.1)">
       <use xlink:href="#DejaVuSans-35"/>
       <use x="63.623047" xlink:href="#DejaVuSans-2e"/>
       <use x="95.410156" xlink:href="#DejaVuSans-30"/>
      </g>
     </g>
    </g>
    <g id="ytick_5">
     <g id="line2d_25">
      <path clip-path="url(#p2914f9fe14)" d="M 57.6 180.861189 
L 414.72 180.861189 
" style="fill:none;stroke:#808080;stroke-dasharray:2.96,1.28;stroke-dashoffset:0;stroke-width:0.8;"/>
     </g>
     <g id="line2d_26">
      <g>
       <use style="stroke:#000000;stroke-width:0.8;" x="57.6" xlink:href="#m659b18e288" y="180.861189"/>
      </g>
     </g>
     <g id="text_14">
      <!-- 5.2 -->
      <g transform="translate(34.696875 184.660408)scale(0.1 -0.1)">
       <use xlink:href="#DejaVuSans-35"/>
       <use x="63.623047" xlink:href="#DejaVuSans-2e"/>
       <use x="95.410156" xlink:href="#DejaVuSans-32"/>
      </g>
     </g>
    </g>
    <g id="ytick_6">
     <g id="line2d_27">
      <path clip-path="url(#p2914f9fe14)" d="M 57.6 150.155577 
L 414.72 150.155577 
" style="fill:none;stroke:#808080;stroke-dasharray:2.96,1.28;stroke-dashoffset:0;stroke-width:0.8;"/>
     </g>
     <g id="line2d_28">
      <g>
       <use style="stroke:#000000;stroke-width:0.8;" x="57.6" xlink:href="#m659b18e288" y="150.155577"/>
      </g>
     </g>
     <g id="text_15">
      <!-- 5.4 -->
      <g transform="translate(34.696875 153.954796)scale(0.1 -0.1)">
       <use xlink:href="#DejaVuSans-35"/>
       <use x="63.623047" xlink:href="#DejaVuSans-2e"/>
       <use x="95.410156" xlink:href="#DejaVuSans-34"/>
      </g>
     </g>
    </g>
    <g id="ytick_7">
     <g id="line2d_29">
      <path clip-path="url(#p2914f9fe14)" d="M 57.6 119.449965 
L 414.72 119.449965 
" style="fill:none;stroke:#808080;stroke-dasharray:2.96,1.28;stroke-dashoffset:0;stroke-width:0.8;"/>
     </g>
     <g id="line2d_30">
      <g>
       <use style="stroke:#000000;stroke-width:0.8;" x="57.6" xlink:href="#m659b18e288" y="119.449965"/>
      </g>
     </g>
     <g id="text_16">
      <!-- 5.6 -->
      <g transform="translate(34.696875 123.249184)scale(0.1 -0.1)">
       <use xlink:href="#DejaVuSans-35"/>
       <use x="63.623047" xlink:href="#DejaVuSans-2e"/>
       <use x="95.410156" xlink:href="#DejaVuSans-36"/>
      </g>
     </g>
    </g>
    <g id="ytick_8">
     <g id="line2d_31">
      <path clip-path="url(#p2914f9fe14)" d="M 57.6 88.744353 
L 414.72 88.744353 
" style="fill:none;stroke:#808080;stroke-dasharray:2.96,1.28;stroke-dashoffset:0;stroke-width:0.8;"/>
     </g>
     <g id="line2d_32">
      <g>
       <use style="stroke:#000000;stroke-width:0.8;" x="57.6" xlink:href="#m659b18e288" y="88.744353"/>
      </g>
     </g>
     <g id="text_17">
      <!-- 5.8 -->
      <g transform="translate(34.696875 92.543572)scale(0.1 -0.1)">
       <use xlink:href="#DejaVuSans-35"/>
       <use x="63.623047" xlink:href="#DejaVuSans-2e"/>
       <use x="95.410156" xlink:href="#DejaVuSans-38"/>
      </g>
     </g>
    </g>
    <g id="ytick_9">
     <g id="line2d_33">
      <path clip-path="url(#p2914f9fe14)" d="M 57.6 58.038741 
L 414.72 58.038741 
" style="fill:none;stroke:#808080;stroke-dasharray:2.96,1.28;stroke-dashoffset:0;stroke-width:0.8;"/>
     </g>
     <g id="line2d_34">
      <g>
       <use style="stroke:#000000;stroke-width:0.8;" x="57.6" xlink:href="#m659b18e288" y="58.038741"/>
      </g>
     </g>
     <g id="text_18">
      <!-- 6.0 -->
      <g transform="translate(34.696875 61.837959)scale(0.1 -0.1)">
       <use xlink:href="#DejaVuSans-36"/>
       <use x="63.623047" xlink:href="#DejaVuSans-2e"/>
       <use x="95.410156" xlink:href="#DejaVuSans-30"/>
      </g>
     </g>
    </g>
    <g id="text_19">
     <!-- wind speed [m/s] -->
     <defs>
      <path d="M 48 51.90625 
L 61.28125 11.375 
L 73 46.6875 
L 65.484375 46.6875 
L 65.484375 51.90625 
L 84.28125 51.90625 
L 84.28125 46.6875 
L 78.515625 46.6875 
L 63.09375 0 
L 55.609375 0 
L 42.828125 38.8125 
L 29.984375 0 
L 22.796875 0 
L 7.421875 46.6875 
L 1.609375 46.6875 
L 1.609375 51.90625 
L 25.09375 51.90625 
L 25.09375 46.6875 
L 16.703125 46.6875 
L 28.328125 11.375 
L 41.703125 51.90625 
z
" id="DejaVuSerif-77"/>
      <path d="M 9.71875 68.015625 
Q 9.71875 70.265625 11.34375 71.921875 
Q 12.984375 73.578125 15.28125 73.578125 
Q 17.53125 73.578125 19.15625 71.921875 
Q 20.796875 70.265625 20.796875 68.015625 
Q 20.796875 65.71875 19.1875 64.109375 
Q 17.578125 62.5 15.28125 62.5 
Q 12.984375 62.5 11.34375 64.109375 
Q 9.71875 65.71875 9.71875 68.015625 
z
M 21.1875 5.171875 
L 29.6875 5.171875 
L 29.6875 0 
L 3.609375 0 
L 3.609375 5.171875 
L 12.203125 5.171875 
L 12.203125 46.6875 
L 3.609375 46.6875 
L 3.609375 51.90625 
L 21.1875 51.90625 
z
" id="DejaVuSerif-69"/>
      <path d="M 4.109375 0 
L 4.109375 5.171875 
L 12.203125 5.171875 
L 12.203125 46.6875 
L 3.609375 46.6875 
L 3.609375 51.90625 
L 21.1875 51.90625 
L 21.1875 42.671875 
Q 23.6875 47.953125 27.65625 50.640625 
Q 31.640625 53.328125 36.921875 53.328125 
Q 45.515625 53.328125 49.5625 48.390625 
Q 53.609375 43.453125 53.609375 33.015625 
L 53.609375 5.171875 
L 61.625 5.171875 
L 61.625 0 
L 36.8125 0 
L 36.8125 5.171875 
L 44.578125 5.171875 
L 44.578125 30.171875 
Q 44.578125 39.703125 42.234375 43.234375 
Q 39.890625 46.78125 33.984375 46.78125 
Q 27.734375 46.78125 24.453125 42.203125 
Q 21.1875 37.640625 21.1875 28.90625 
L 21.1875 5.171875 
L 29 5.171875 
L 29 0 
z
" id="DejaVuSerif-6e"/>
      <path d="M 52.484375 5.171875 
L 61.078125 5.171875 
L 61.078125 0 
L 43.5 0 
L 43.5 8.109375 
Q 40.875 3.21875 36.796875 0.890625 
Q 32.71875 -1.421875 26.703125 -1.421875 
Q 17.140625 -1.421875 11.0625 6.171875 
Q 4.984375 13.765625 4.984375 25.984375 
Q 4.984375 38.1875 11.03125 45.75 
Q 17.09375 53.328125 26.703125 53.328125 
Q 32.71875 53.328125 36.796875 51 
Q 40.875 48.6875 43.5 43.796875 
L 43.5 70.796875 
L 35.015625 70.796875 
L 35.015625 75.984375 
L 52.484375 75.984375 
z
M 43.5 23.390625 
L 43.5 28.515625 
Q 43.5 37.84375 39.90625 42.765625 
Q 36.328125 47.703125 29.5 47.703125 
Q 22.5625 47.703125 19.015625 42.234375 
Q 15.484375 36.765625 15.484375 25.984375 
Q 15.484375 15.234375 19.015625 9.71875 
Q 22.5625 4.203125 29.5 4.203125 
Q 36.328125 4.203125 39.90625 9.109375 
Q 43.5 14.015625 43.5 23.390625 
z
" id="DejaVuSerif-64"/>
      <path id="DejaVuSerif-20"/>
      <path d="M 5.609375 2.875 
L 5.609375 14.984375 
L 10.796875 14.984375 
Q 10.984375 9.1875 14.421875 6.296875 
Q 17.875 3.421875 24.609375 3.421875 
Q 30.671875 3.421875 33.84375 5.6875 
Q 37.015625 7.953125 37.015625 12.3125 
Q 37.015625 15.71875 34.6875 17.8125 
Q 32.375 19.921875 24.90625 22.3125 
L 18.40625 24.515625 
Q 11.71875 26.65625 8.71875 29.875 
Q 5.71875 33.109375 5.71875 38.09375 
Q 5.71875 45.21875 10.9375 49.265625 
Q 16.15625 53.328125 25.390625 53.328125 
Q 29.5 53.328125 34.03125 52.25 
Q 38.578125 51.171875 43.40625 49.125 
L 43.40625 37.796875 
L 38.234375 37.796875 
Q 38.03125 42.828125 34.703125 45.65625 
Q 31.390625 48.484375 25.6875 48.484375 
Q 20.015625 48.484375 17.109375 46.484375 
Q 14.203125 44.484375 14.203125 40.484375 
Q 14.203125 37.203125 16.40625 35.21875 
Q 18.609375 33.25 25.203125 31.203125 
L 32.328125 29 
Q 39.703125 26.703125 42.9375 23.265625 
Q 46.1875 19.828125 46.1875 14.40625 
Q 46.1875 7.03125 40.546875 2.796875 
Q 34.90625 -1.421875 25 -1.421875 
Q 19.96875 -1.421875 15.1875 -0.34375 
Q 10.40625 0.734375 5.609375 2.875 
z
" id="DejaVuSerif-73"/>
      <path d="M 20.515625 28.515625 
L 20.515625 23.390625 
Q 20.515625 14.015625 24.09375 9.109375 
Q 27.6875 4.203125 34.515625 4.203125 
Q 41.40625 4.203125 44.9375 9.71875 
Q 48.484375 15.234375 48.484375 25.984375 
Q 48.484375 36.765625 44.9375 42.234375 
Q 41.40625 47.703125 34.515625 47.703125 
Q 27.6875 47.703125 24.09375 42.765625 
Q 20.515625 37.84375 20.515625 28.515625 
z
M 11.53125 46.6875 
L 2.875 46.6875 
L 2.875 51.90625 
L 20.515625 51.90625 
L 20.515625 43.796875 
Q 23.140625 48.6875 27.21875 51 
Q 31.296875 53.328125 37.3125 53.328125 
Q 46.875 53.328125 52.921875 45.75 
Q 58.984375 38.1875 58.984375 25.984375 
Q 58.984375 13.765625 52.921875 6.171875 
Q 46.875 -1.421875 37.3125 -1.421875 
Q 31.296875 -1.421875 27.21875 0.890625 
Q 23.140625 3.21875 20.515625 8.109375 
L 20.515625 -15.578125 
L 29 -15.578125 
L 29 -20.796875 
L 2.875 -20.796875 
L 2.875 -15.578125 
L 11.53125 -15.578125 
z
" id="DejaVuSerif-70"/>
      <path d="M 8.59375 75.984375 
L 31.296875 75.984375 
L 31.296875 70.796875 
L 17.921875 70.796875 
L 17.921875 -8.015625 
L 31.296875 -8.015625 
L 31.296875 -13.1875 
L 8.59375 -13.1875 
z
" id="DejaVuSerif-5b"/>
      <path d="M 51.8125 41.796875 
Q 54.390625 47.515625 58.421875 50.421875 
Q 62.453125 53.328125 67.828125 53.328125 
Q 75.984375 53.328125 79.984375 48.265625 
Q 83.984375 43.21875 83.984375 33.015625 
L 83.984375 5.171875 
L 92.09375 5.171875 
L 92.09375 0 
L 67.1875 0 
L 67.1875 5.171875 
L 75 5.171875 
L 75 31.984375 
Q 75 39.9375 72.65625 43.3125 
Q 70.3125 46.6875 64.890625 46.6875 
Q 58.890625 46.6875 55.734375 42.140625 
Q 52.59375 37.59375 52.59375 28.90625 
L 52.59375 5.171875 
L 60.40625 5.171875 
L 60.40625 0 
L 35.796875 0 
L 35.796875 5.171875 
L 43.609375 5.171875 
L 43.609375 32.328125 
Q 43.609375 40.09375 41.265625 43.390625 
Q 38.921875 46.6875 33.5 46.6875 
Q 27.484375 46.6875 24.328125 42.140625 
Q 21.1875 37.59375 21.1875 28.90625 
L 21.1875 5.171875 
L 29 5.171875 
L 29 0 
L 4.109375 0 
L 4.109375 5.171875 
L 12.203125 5.171875 
L 12.203125 46.78125 
L 3.609375 46.78125 
L 3.609375 51.90625 
L 21.1875 51.90625 
L 21.1875 42.671875 
Q 23.6875 47.859375 27.53125 50.59375 
Q 31.390625 53.328125 36.28125 53.328125 
Q 42.328125 53.328125 46.375 50.3125 
Q 50.4375 47.3125 51.8125 41.796875 
z
" id="DejaVuSerif-6d"/>
      <path d="M 25.875 72.90625 
L 33.6875 72.90625 
L 7.8125 -9.28125 
L 0 -9.28125 
z
" id="DejaVuSerif-2f"/>
      <path d="M 30.421875 75.984375 
L 30.421875 -13.1875 
L 7.71875 -13.1875 
L 7.71875 -8.015625 
L 21.09375 -8.015625 
L 21.09375 70.796875 
L 7.71875 70.796875 
L 7.71875 75.984375 
z
" id="DejaVuSerif-5d"/>
     </defs>
     <g transform="translate(27.577344 239.413547)rotate(-90)scale(0.15 -0.15)">
      <use xlink:href="#DejaVuSerif-77"/>
      <use x="85.595703" xlink:href="#DejaVuSerif-69"/>
      <use x="117.578125" xlink:href="#DejaVuSerif-6e"/>
      <use x="181.982422" xlink:href="#DejaVuSerif-64"/>
      <use x="245.996094" xlink:href="#DejaVuSerif-20"/>
      <use x="277.783203" xlink:href="#DejaVuSerif-73"/>
      <use x="329.101562" xlink:href="#DejaVuSerif-70"/>
      <use x="393.115234" xlink:href="#DejaVuSerif-65"/>
      <use x="452.294922" xlink:href="#DejaVuSerif-65"/>
      <use x="511.474609" xlink:href="#DejaVuSerif-64"/>
      <use x="575.488281" xlink:href="#DejaVuSerif-20"/>
      <use x="607.275391" xlink:href="#DejaVuSerif-5b"/>
      <use x="646.289062" xlink:href="#DejaVuSerif-6d"/>
      <use x="741.113281" xlink:href="#DejaVuSerif-2f"/>
      <use x="774.804688" xlink:href="#DejaVuSerif-73"/>
      <use x="826.123047" xlink:href="#DejaVuSerif-5d"/>
     </g>
    </g>
   </g>
   <g id="line2d_35">
    <defs>
     <path d="M 0 4 
C 1.060812 4 2.078319 3.578535 2.828427 2.828427 
C 3.578535 2.078319 4 1.060812 4 0 
C 4 -1.060812 3.578535 -2.078319 2.828427 -2.828427 
C 2.078319 -3.578535 1.060812 -4 0 -4 
C -1.060812 -4 -2.078319 -3.578535 -2.828427 -2.828427 
C -3.578535 -2.078319 -4 -1.060812 -4 0 
C -4 1.060812 -3.578535 2.078319 -2.828427 2.828427 
C -2.078319 3.578535 -1.060812 4 0 4 
z
" id="mb273f45ce7" style="stroke:#0000ff;stroke-width:2;"/>
    </defs>
    <g clip-path="url(#p2914f9fe14)">
     <use style="fill-opacity:0;stroke:#0000ff;stroke-width:2;" x="73.832727" xlink:href="#mb273f45ce7" y="126.413998"/>
     <use style="fill-opacity:0;stroke:#0000ff;stroke-width:2;" x="75.968612" xlink:href="#mb273f45ce7" y="127.144791"/>
     <use style="fill-opacity:0;stroke:#0000ff;stroke-width:2;" x="78.104498" xlink:href="#mb273f45ce7" y="162.612844"/>
     <use style="fill-opacity:0;stroke:#0000ff;stroke-width:2;" x="80.240383" xlink:href="#mb273f45ce7" y="138.749978"/>
     <use style="fill-opacity:0;stroke:#0000ff;stroke-width:2;" x="82.376268" xlink:href="#mb273f45ce7" y="116.732518"/>
     <use style="fill-opacity:0;stroke:#0000ff;stroke-width:2;" x="84.512153" xlink:href="#mb273f45ce7" y="100.19294"/>
     <use style="fill-opacity:0;stroke:#0000ff;stroke-width:2;" x="86.648038" xlink:href="#mb273f45ce7" y="117.274472"/>
     <use style="fill-opacity:0;stroke:#0000ff;stroke-width:2;" x="88.783923" xlink:href="#mb273f45ce7" y="113.371789"/>
     <use style="fill-opacity:0;stroke:#0000ff;stroke-width:2;" x="90.919809" xlink:href="#mb273f45ce7" y="115.625581"/>
     <use style="fill-opacity:0;stroke:#0000ff;stroke-width:2;" x="93.055694" xlink:href="#mb273f45ce7" y="111.291484"/>
     <use style="fill-opacity:0;stroke:#0000ff;stroke-width:2;" x="95.191579" xlink:href="#mb273f45ce7" y="96.687895"/>
     <use style="fill-opacity:0;stroke:#0000ff;stroke-width:2;" x="97.327464" xlink:href="#mb273f45ce7" y="97.796367"/>
     <use style="fill-opacity:0;stroke:#0000ff;stroke-width:2;" x="99.463349" xlink:href="#mb273f45ce7" y="89.103609"/>
     <use style="fill-opacity:0;stroke:#0000ff;stroke-width:2;" x="101.599234" xlink:href="#mb273f45ce7" y="92.740688"/>
     <use style="fill-opacity:0;stroke:#0000ff;stroke-width:2;" x="103.73512" xlink:href="#mb273f45ce7" y="94.566137"/>
     <use style="fill-opacity:0;stroke:#0000ff;stroke-width:2;" x="105.871005" xlink:href="#mb273f45ce7" y="109.648734"/>
     <use style="fill-opacity:0;stroke:#0000ff;stroke-width:2;" x="108.00689" xlink:href="#mb273f45ce7" y="95.335313"/>
     <use style="fill-opacity:0;stroke:#0000ff;stroke-width:2;" x="110.142775" xlink:href="#mb273f45ce7" y="105.050568"/>
     <use style="fill-opacity:0;stroke:#0000ff;stroke-width:2;" x="112.27866" xlink:href="#mb273f45ce7" y="113.884573"/>
     <use style="fill-opacity:0;stroke:#0000ff;stroke-width:2;" x="114.414545" xlink:href="#mb273f45ce7" y="99.153555"/>
     <use style="fill-opacity:0;stroke:#0000ff;stroke-width:2;" x="116.550431" xlink:href="#mb273f45ce7" y="121.085039"/>
     <use style="fill-opacity:0;stroke:#0000ff;stroke-width:2;" x="118.686316" xlink:href="#mb273f45ce7" y="87.374883"/>
     <use style="fill-opacity:0;stroke:#0000ff;stroke-width:2;" x="120.822201" xlink:href="#mb273f45ce7" y="111.707545"/>
     <use style="fill-opacity:0;stroke:#0000ff;stroke-width:2;" x="122.958086" xlink:href="#mb273f45ce7" y="99.279448"/>
     <use style="fill-opacity:0;stroke:#0000ff;stroke-width:2;" x="125.093971" xlink:href="#mb273f45ce7" y="98.863387"/>
     <use style="fill-opacity:0;stroke:#0000ff;stroke-width:2;" x="127.229856" xlink:href="#mb273f45ce7" y="110.333469"/>
     <use style="fill-opacity:0;stroke:#0000ff;stroke-width:2;" x="129.365742" xlink:href="#mb273f45ce7" y="104.313634"/>
     <use style="fill-opacity:0;stroke:#0000ff;stroke-width:2;" x="131.501627" xlink:href="#mb273f45ce7" y="114.58159"/>
     <use style="fill-opacity:0;stroke:#0000ff;stroke-width:2;" x="133.637512" xlink:href="#mb273f45ce7" y="107.14162"/>
     <use style="fill-opacity:0;stroke:#0000ff;stroke-width:2;" x="135.773397" xlink:href="#mb273f45ce7" y="115.969484"/>
     <use style="fill-opacity:0;stroke:#0000ff;stroke-width:2;" x="137.909282" xlink:href="#mb273f45ce7" y="105.987089"/>
     <use style="fill-opacity:0;stroke:#0000ff;stroke-width:2;" x="140.045167" xlink:href="#mb273f45ce7" y="100.409415"/>
     <use style="fill-opacity:0;stroke:#0000ff;stroke-width:2;" x="142.181053" xlink:href="#mb273f45ce7" y="101.098756"/>
     <use style="fill-opacity:0;stroke:#0000ff;stroke-width:2;" x="144.316938" xlink:href="#mb273f45ce7" y="99.589575"/>
     <use style="fill-opacity:0;stroke:#0000ff;stroke-width:2;" x="146.452823" xlink:href="#mb273f45ce7" y="92.355333"/>
     <use style="fill-opacity:0;stroke:#0000ff;stroke-width:2;" x="148.588708" xlink:href="#mb273f45ce7" y="107.984489"/>
     <use style="fill-opacity:0;stroke:#0000ff;stroke-width:2;" x="150.724593" xlink:href="#mb273f45ce7" y="111.649204"/>
     <use style="fill-opacity:0;stroke:#0000ff;stroke-width:2;" x="152.860478" xlink:href="#mb273f45ce7" y="118.065142"/>
     <use style="fill-opacity:0;stroke:#0000ff;stroke-width:2;" x="154.996364" xlink:href="#mb273f45ce7" y="84.43482"/>
     <use style="fill-opacity:0;stroke:#0000ff;stroke-width:2;" x="157.132249" xlink:href="#mb273f45ce7" y="70.196628"/>
     <use style="fill-opacity:0;stroke:#0000ff;stroke-width:2;" x="159.268134" xlink:href="#mb273f45ce7" y="123.435554"/>
     <use style="fill-opacity:0;stroke:#0000ff;stroke-width:2;" x="161.404019" xlink:href="#mb273f45ce7" y="118.078959"/>
     <use style="fill-opacity:0;stroke:#0000ff;stroke-width:2;" x="163.539904" xlink:href="#mb273f45ce7" y="98.350604"/>
     <use style="fill-opacity:0;stroke:#0000ff;stroke-width:2;" x="165.675789" xlink:href="#mb273f45ce7" y="92.250934"/>
     <use style="fill-opacity:0;stroke:#0000ff;stroke-width:2;" x="167.811675" xlink:href="#mb273f45ce7" y="93.3809"/>
     <use style="fill-opacity:0;stroke:#0000ff;stroke-width:2;" x="169.94756" xlink:href="#mb273f45ce7" y="99.013845"/>
     <use style="fill-opacity:0;stroke:#0000ff;stroke-width:2;" x="172.083445" xlink:href="#mb273f45ce7" y="86.512055"/>
     <use style="fill-opacity:0;stroke:#0000ff;stroke-width:2;" x="174.21933" xlink:href="#mb273f45ce7" y="127.562388"/>
     <use style="fill-opacity:0;stroke:#0000ff;stroke-width:2;" x="176.355215" xlink:href="#mb273f45ce7" y="91.687486"/>
     <use style="fill-opacity:0;stroke:#0000ff;stroke-width:2;" x="178.4911" xlink:href="#mb273f45ce7" y="103.780891"/>
     <use style="fill-opacity:0;stroke:#0000ff;stroke-width:2;" x="180.626986" xlink:href="#mb273f45ce7" y="96.351668"/>
     <use style="fill-opacity:0;stroke:#0000ff;stroke-width:2;" x="182.762871" xlink:href="#mb273f45ce7" y="104.359692"/>
     <use style="fill-opacity:0;stroke:#0000ff;stroke-width:2;" x="184.898756" xlink:href="#mb273f45ce7" y="100.814729"/>
     <use style="fill-opacity:0;stroke:#0000ff;stroke-width:2;" x="187.034641" xlink:href="#mb273f45ce7" y="78.920092"/>
    </g>
   </g>
   <g id="line2d_36">
    <path clip-path="url(#p2914f9fe14)" d="M 73.832727 116.539695 
L 75.968612 116.125408 
L 78.104498 115.71112 
L 80.240383 115.296833 
L 82.376268 114.882546 
L 84.512153 114.468258 
L 86.648038 114.053971 
L 88.783923 113.639683 
L 90.919809 113.225396 
L 93.055694 112.811108 
L 95.191579 112.396821 
L 97.327464 111.982533 
L 99.463349 111.568246 
L 101.599234 111.153958 
L 103.73512 110.739671 
L 105.871005 110.325383 
L 108.00689 109.911096 
L 110.142775 109.496808 
L 112.27866 109.082521 
L 114.414545 108.668233 
L 116.550431 108.253946 
L 118.686316 107.839659 
L 120.822201 107.425371 
L 122.958086 107.011084 
L 125.093971 106.596796 
L 127.229856 106.182509 
L 129.365742 105.768221 
L 131.501627 105.353934 
L 133.637512 104.939646 
L 135.773397 104.525359 
L 137.909282 104.111071 
L 140.045167 103.696784 
L 142.181053 103.282496 
L 144.316938 102.868209 
L 146.452823 102.453921 
L 148.588708 102.039634 
L 150.724593 101.625347 
L 152.860478 101.211059 
L 154.996364 100.796772 
L 157.132249 100.382484 
L 159.268134 99.968197 
L 161.404019 99.553909 
L 163.539904 99.139622 
L 165.675789 98.725334 
L 167.811675 98.311047 
L 169.94756 97.896759 
L 172.083445 97.482472 
L 174.21933 97.068184 
L 176.355215 96.653897 
L 178.4911 96.239609 
L 180.626986 95.825322 
L 182.762871 95.411034 
L 184.898756 94.996747 
L 187.034641 94.58246 
" style="fill:none;stroke:#008000;stroke-linecap:square;stroke-width:2;"/>
   </g>
   <g id="line2d_37">
    <path clip-path="url(#p2914f9fe14)" d="M 73.832727 123.705461 
L 75.968612 122.479955 
L 78.104498 121.28565 
L 80.240383 120.122545 
L 82.376268 118.990641 
L 84.512153 117.889937 
L 86.648038 116.820435 
L 88.783923 115.782133 
L 90.919809 114.775032 
L 93.055694 113.799131 
L 95.191579 112.854431 
L 97.327464 111.940932 
L 99.463349 111.058634 
L 101.599234 110.207536 
L 103.73512 109.38764 
L 105.871005 108.598943 
L 108.00689 107.841448 
L 110.142775 107.115153 
L 112.27866 106.420059 
L 114.414545 105.756166 
L 116.550431 105.123474 
L 118.686316 104.521982 
L 120.822201 103.951691 
L 122.958086 103.4126 
L 125.093971 102.904711 
L 127.229856 102.428022 
L 129.365742 101.982534 
L 131.501627 101.568246 
L 133.637512 101.185159 
L 135.773397 100.833273 
L 137.909282 100.512588 
L 140.045167 100.223103 
L 142.181053 99.96482 
L 144.316938 99.737736 
L 146.452823 99.541854 
L 148.588708 99.377172 
L 150.724593 99.243691 
L 152.860478 99.141411 
L 154.996364 99.070332 
L 157.132249 99.030453 
L 159.268134 99.021775 
L 161.404019 99.044297 
L 163.539904 99.098021 
L 165.675789 99.182945 
L 167.811675 99.29907 
L 169.94756 99.446395 
L 172.083445 99.624921 
L 174.21933 99.834648 
L 176.355215 100.075576 
L 178.4911 100.347704 
L 180.626986 100.651034 
L 182.762871 100.985563 
L 184.898756 101.351294 
L 187.034641 101.748225 
" style="fill:none;stroke:#ff4500;stroke-linecap:square;stroke-width:2;"/>
   </g>
   <g id="line2d_38">
    <path clip-path="url(#p2914f9fe14)" d="M 187.034641 94.58246 
L 189.170526 94.168172 
L 191.306411 93.753885 
L 193.442297 93.339597 
L 195.578182 92.92531 
L 197.714067 92.511022 
L 199.849952 92.096735 
L 201.985837 91.682447 
L 204.121722 91.26816 
L 206.257608 90.853872 
L 208.393493 90.439585 
L 210.529378 90.025297 
L 212.665263 89.61101 
L 214.801148 89.196722 
L 216.937033 88.782435 
L 219.072919 88.368147 
L 221.208804 87.95386 
L 223.344689 87.539573 
L 225.480574 87.125285 
L 227.616459 86.710998 
L 229.752344 86.29671 
L 231.88823 85.882423 
L 234.024115 85.468135 
L 236.16 85.053848 
L 238.295885 84.63956 
L 240.43177 84.225273 
L 242.567656 83.810985 
L 244.703541 83.396698 
L 246.839426 82.98241 
L 248.975311 82.568123 
L 251.111196 82.153835 
L 253.247081 81.739548 
L 255.382967 81.32526 
L 257.518852 80.910973 
L 259.654737 80.496686 
L 261.790622 80.082398 
L 263.926507 79.668111 
L 266.062392 79.253823 
L 268.198278 78.839536 
L 270.334163 78.425248 
L 272.470048 78.010961 
L 274.605933 77.596673 
L 276.741818 77.182386 
L 278.877703 76.768098 
L 281.013589 76.353811 
L 283.149474 75.939523 
L 285.285359 75.525236 
L 287.421244 75.110948 
L 289.557129 74.696661 
L 291.693014 74.282373 
L 293.8289 73.868086 
L 295.964785 73.453799 
L 298.10067 73.039511 
L 300.236555 72.625224 
L 302.37244 72.210936 
L 304.508325 71.796649 
L 306.644211 71.382361 
L 308.780096 70.968074 
L 310.915981 70.553786 
L 313.051866 70.139499 
L 315.187751 69.725211 
L 317.323636 69.310924 
L 319.459522 68.896636 
L 321.595407 68.482349 
L 323.731292 68.068061 
L 325.867177 67.653774 
L 328.003062 67.239487 
L 330.138947 66.825199 
L 332.274833 66.410912 
L 334.410718 65.996624 
L 336.546603 65.582337 
L 338.682488 65.168049 
L 340.818373 64.753762 
L 342.954258 64.339474 
L 345.090144 63.925187 
L 347.226029 63.510899 
L 349.361914 63.096612 
L 351.497799 62.682324 
L 353.633684 62.268037 
L 355.769569 61.853749 
L 357.905455 61.439462 
L 360.04134 61.025174 
L 362.177225 60.610887 
L 364.31311 60.1966 
L 366.448995 59.782312 
L 368.58488 59.368025 
L 370.720766 58.953737 
L 372.856651 58.53945 
L 374.992536 58.125162 
L 377.128421 57.710875 
L 379.264306 57.296587 
L 381.400191 56.8823 
L 383.536077 56.468012 
L 385.671962 56.053725 
L 387.807847 55.639437 
L 389.943732 55.22515 
L 392.079617 54.810862 
L 394.215502 54.396575 
L 396.351388 53.982287 
L 398.487273 53.568 
" style="fill:none;stroke:#008000;stroke-dasharray:7.4,3.2;stroke-dashoffset:0;stroke-width:2;"/>
   </g>
   <g id="line2d_39">
    <path clip-path="url(#p2914f9fe14)" d="M 187.034641 101.748225 
L 189.170526 102.176357 
L 191.306411 102.63569 
L 193.442297 103.126224 
L 195.578182 103.647958 
L 197.714067 104.200893 
L 199.849952 104.785028 
L 201.985837 105.400365 
L 204.121722 106.046902 
L 206.257608 106.72464 
L 208.393493 107.433578 
L 210.529378 108.173717 
L 212.665263 108.945057 
L 214.801148 109.747598 
L 216.937033 110.58134 
L 219.072919 111.446282 
L 221.208804 112.342425 
L 223.344689 113.269768 
L 225.480574 114.228312 
L 227.616459 115.218057 
L 229.752344 116.239003 
L 231.88823 117.29115 
L 234.024115 118.374497 
L 236.16 119.489045 
L 238.295885 120.634793 
L 240.43177 121.811743 
L 242.567656 123.019893 
L 244.703541 124.259244 
L 246.839426 125.529795 
L 248.975311 126.831548 
L 251.111196 128.1645 
L 253.247081 129.528654 
L 255.382967 130.924009 
L 257.518852 132.350564 
L 259.654737 133.80832 
L 261.790622 135.297276 
L 263.926507 136.817434 
L 266.062392 138.368792 
L 268.198278 139.95135 
L 270.334163 141.56511 
L 272.470048 143.21007 
L 274.605933 144.886231 
L 276.741818 146.593593 
L 278.877703 148.332155 
L 281.013589 150.101918 
L 283.149474 151.902882 
L 285.285359 153.735046 
L 287.421244 155.598412 
L 289.557129 157.492978 
L 291.693014 159.418744 
L 293.8289 161.375712 
L 295.964785 163.36388 
L 298.10067 165.383249 
L 300.236555 167.433818 
L 302.37244 169.515589 
L 304.508325 171.62856 
L 306.644211 173.772731 
L 308.780096 175.948104 
L 310.915981 178.154677 
L 313.051866 180.392451 
L 315.187751 182.661426 
L 317.323636 184.961601 
L 319.459522 187.292977 
L 321.595407 189.655554 
L 323.731292 192.049331 
L 325.867177 194.47431 
L 328.003062 196.930489 
L 330.138947 199.417868 
L 332.274833 201.936449 
L 334.410718 204.48623 
L 336.546603 207.067212 
L 338.682488 209.679394 
L 340.818373 212.322778 
L 342.954258 214.997362 
L 345.090144 217.703146 
L 347.226029 220.440132 
L 349.361914 223.208318 
L 351.497799 226.007705 
L 353.633684 228.838293 
L 355.769569 231.700081 
L 357.905455 234.59307 
L 360.04134 237.51726 
L 362.177225 240.47265 
L 364.31311 243.459242 
L 366.448995 246.477034 
L 368.58488 249.526026 
L 370.720766 252.60622 
L 372.856651 255.717614 
L 374.992536 258.860209 
L 377.128421 262.034004 
L 379.264306 265.239001 
L 381.400191 268.475198 
L 383.536077 271.742595 
L 385.671962 275.041194 
L 387.807847 278.370993 
L 389.943732 281.731993 
L 392.079617 285.124194 
L 394.215502 288.547595 
L 396.351388 292.002197 
L 398.487273 295.488 
" style="fill:none;stroke:#ff4500;stroke-dasharray:7.4,3.2;stroke-dashoffset:0;stroke-width:2;"/>
   </g>
   <g id="patch_3">
    <path d="M 57.6 307.584 
L 57.6 41.472 
" style="fill:none;stroke:#000000;stroke-linecap:square;stroke-linejoin:miter;stroke-width:0.8;"/>
   </g>
   <g id="patch_4">
    <path d="M 414.72 307.584 
L 414.72 41.472 
" style="fill:none;stroke:#000000;stroke-linecap:square;stroke-linejoin:miter;stroke-width:0.8;"/>
   </g>
   <g id="patch_5">
    <path d="M 57.6 307.584 
L 414.72 307.584 
" style="fill:none;stroke:#000000;stroke-linecap:square;stroke-linejoin:miter;stroke-width:0.8;"/>
   </g>
   <g id="patch_6">
    <path d="M 57.6 41.472 
L 414.72 41.472 
" style="fill:none;stroke:#000000;stroke-linecap:square;stroke-linejoin:miter;stroke-width:0.8;"/>
   </g>
   <g id="legend_1">
    <g id="patch_7">
     <path d="M 64.6 302.584 
L 144.198438 302.584 
Q 146.198438 302.584 146.198438 300.584 
L 146.198438 257.549625 
Q 146.198438 255.549625 144.198438 255.549625 
L 64.6 255.549625 
Q 62.6 255.549625 62.6 257.549625 
L 62.6 300.584 
Q 62.6 302.584 64.6 302.584 
z
" style="fill:#ffffff;opacity:0.8;stroke:#cccccc;stroke-linejoin:miter;"/>
    </g>
    <g id="line2d_40"/>
    <g id="line2d_41">
     <g>
      <use style="fill-opacity:0;stroke:#0000ff;stroke-width:2;" x="76.6" xlink:href="#mb273f45ce7" y="263.648062"/>
     </g>
    </g>
    <g id="text_20">
     <!-- raw data -->
     <defs>
      <path d="M 41.109375 46.296875 
Q 39.59375 47.171875 37.8125 47.578125 
Q 36.03125 48 33.890625 48 
Q 26.265625 48 22.1875 43.046875 
Q 18.109375 38.09375 18.109375 28.8125 
L 18.109375 0 
L 9.078125 0 
L 9.078125 54.6875 
L 18.109375 54.6875 
L 18.109375 46.1875 
Q 20.953125 51.171875 25.484375 53.578125 
Q 30.03125 56 36.53125 56 
Q 37.453125 56 38.578125 55.875 
Q 39.703125 55.765625 41.0625 55.515625 
z
" id="DejaVuSans-72"/>
      <path d="M 34.28125 27.484375 
Q 23.390625 27.484375 19.1875 25 
Q 14.984375 22.515625 14.984375 16.5 
Q 14.984375 11.71875 18.140625 8.90625 
Q 21.296875 6.109375 26.703125 6.109375 
Q 34.1875 6.109375 38.703125 11.40625 
Q 43.21875 16.703125 43.21875 25.484375 
L 43.21875 27.484375 
z
M 52.203125 31.203125 
L 52.203125 0 
L 43.21875 0 
L 43.21875 8.296875 
Q 40.140625 3.328125 35.546875 0.953125 
Q 30.953125 -1.421875 24.3125 -1.421875 
Q 15.921875 -1.421875 10.953125 3.296875 
Q 6 8.015625 6 15.921875 
Q 6 25.140625 12.171875 29.828125 
Q 18.359375 34.515625 30.609375 34.515625 
L 43.21875 34.515625 
L 43.21875 35.40625 
Q 43.21875 41.609375 39.140625 45 
Q 35.0625 48.390625 27.6875 48.390625 
Q 23 48.390625 18.546875 47.265625 
Q 14.109375 46.140625 10.015625 43.890625 
L 10.015625 52.203125 
Q 14.9375 54.109375 19.578125 55.046875 
Q 24.21875 56 28.609375 56 
Q 40.484375 56 46.34375 49.84375 
Q 52.203125 43.703125 52.203125 31.203125 
z
" id="DejaVuSans-61"/>
      <path d="M 4.203125 54.6875 
L 13.1875 54.6875 
L 24.421875 12.015625 
L 35.59375 54.6875 
L 46.1875 54.6875 
L 57.421875 12.015625 
L 68.609375 54.6875 
L 77.59375 54.6875 
L 63.28125 0 
L 52.6875 0 
L 40.921875 44.828125 
L 29.109375 0 
L 18.5 0 
z
" id="DejaVuSans-77"/>
      <path id="DejaVuSans-20"/>
      <path d="M 45.40625 46.390625 
L 45.40625 75.984375 
L 54.390625 75.984375 
L 54.390625 0 
L 45.40625 0 
L 45.40625 8.203125 
Q 42.578125 3.328125 38.25 0.953125 
Q 33.9375 -1.421875 27.875 -1.421875 
Q 17.96875 -1.421875 11.734375 6.484375 
Q 5.515625 14.40625 5.515625 27.296875 
Q 5.515625 40.1875 11.734375 48.09375 
Q 17.96875 56 27.875 56 
Q 33.9375 56 38.25 53.625 
Q 42.578125 51.265625 45.40625 46.390625 
z
M 14.796875 27.296875 
Q 14.796875 17.390625 18.875 11.75 
Q 22.953125 6.109375 30.078125 6.109375 
Q 37.203125 6.109375 41.296875 11.75 
Q 45.40625 17.390625 45.40625 27.296875 
Q 45.40625 37.203125 41.296875 42.84375 
Q 37.203125 48.484375 30.078125 48.484375 
Q 22.953125 48.484375 18.875 42.84375 
Q 14.796875 37.203125 14.796875 27.296875 
z
" id="DejaVuSans-64"/>
      <path d="M 18.3125 70.21875 
L 18.3125 54.6875 
L 36.8125 54.6875 
L 36.8125 47.703125 
L 18.3125 47.703125 
L 18.3125 18.015625 
Q 18.3125 11.328125 20.140625 9.421875 
Q 21.96875 7.515625 27.59375 7.515625 
L 36.8125 7.515625 
L 36.8125 0 
L 27.59375 0 
Q 17.1875 0 13.234375 3.875 
Q 9.28125 7.765625 9.28125 18.015625 
L 9.28125 47.703125 
L 2.6875 47.703125 
L 2.6875 54.6875 
L 9.28125 54.6875 
L 9.28125 70.21875 
z
" id="DejaVuSans-74"/>
     </defs>
     <g transform="translate(94.6 267.148062)scale(0.1 -0.1)">
      <use xlink:href="#DejaVuSans-72"/>
      <use x="41.113281" xlink:href="#DejaVuSans-61"/>
      <use x="102.392578" xlink:href="#DejaVuSans-77"/>
      <use x="184.179688" xlink:href="#DejaVuSans-20"/>
      <use x="215.966797" xlink:href="#DejaVuSans-64"/>
      <use x="279.443359" xlink:href="#DejaVuSans-61"/>
      <use x="340.722656" xlink:href="#DejaVuSans-74"/>
      <use x="379.931641" xlink:href="#DejaVuSans-61"/>
     </g>
    </g>
    <g id="line2d_42">
     <path d="M 66.6 278.326188 
L 86.6 278.326188 
" style="fill:none;stroke:#008000;stroke-linecap:square;stroke-width:2;"/>
    </g>
    <g id="line2d_43"/>
    <g id="text_21">
     <!-- linear -->
     <defs>
      <path d="M 9.421875 75.984375 
L 18.40625 75.984375 
L 18.40625 0 
L 9.421875 0 
z
" id="DejaVuSans-6c"/>
      <path d="M 9.421875 54.6875 
L 18.40625 54.6875 
L 18.40625 0 
L 9.421875 0 
z
M 9.421875 75.984375 
L 18.40625 75.984375 
L 18.40625 64.59375 
L 9.421875 64.59375 
z
" id="DejaVuSans-69"/>
      <path d="M 54.890625 33.015625 
L 54.890625 0 
L 45.90625 0 
L 45.90625 32.71875 
Q 45.90625 40.484375 42.875 44.328125 
Q 39.84375 48.1875 33.796875 48.1875 
Q 26.515625 48.1875 22.3125 43.546875 
Q 18.109375 38.921875 18.109375 30.90625 
L 18.109375 0 
L 9.078125 0 
L 9.078125 54.6875 
L 18.109375 54.6875 
L 18.109375 46.1875 
Q 21.34375 51.125 25.703125 53.5625 
Q 30.078125 56 35.796875 56 
Q 45.21875 56 50.046875 50.171875 
Q 54.890625 44.34375 54.890625 33.015625 
z
" id="DejaVuSans-6e"/>
      <path d="M 56.203125 29.59375 
L 56.203125 25.203125 
L 14.890625 25.203125 
Q 15.484375 15.921875 20.484375 11.0625 
Q 25.484375 6.203125 34.421875 6.203125 
Q 39.59375 6.203125 44.453125 7.46875 
Q 49.3125 8.734375 54.109375 11.28125 
L 54.109375 2.78125 
Q 49.265625 0.734375 44.1875 -0.34375 
Q 39.109375 -1.421875 33.890625 -1.421875 
Q 20.796875 -1.421875 13.15625 6.1875 
Q 5.515625 13.8125 5.515625 26.8125 
Q 5.515625 40.234375 12.765625 48.109375 
Q 20.015625 56 32.328125 56 
Q 43.359375 56 49.78125 48.890625 
Q 56.203125 41.796875 56.203125 29.59375 
z
M 47.21875 32.234375 
Q 47.125 39.59375 43.09375 43.984375 
Q 39.0625 48.390625 32.421875 48.390625 
Q 24.90625 48.390625 20.390625 44.140625 
Q 15.875 39.890625 15.1875 32.171875 
z
" id="DejaVuSans-65"/>
     </defs>
     <g transform="translate(94.6 281.826188)scale(0.1 -0.1)">
      <use xlink:href="#DejaVuSans-6c"/>
      <use x="27.783203" xlink:href="#DejaVuSans-69"/>
      <use x="55.566406" xlink:href="#DejaVuSans-6e"/>
      <use x="118.945312" xlink:href="#DejaVuSans-65"/>
      <use x="180.46875" xlink:href="#DejaVuSans-61"/>
      <use x="241.748047" xlink:href="#DejaVuSans-72"/>
     </g>
    </g>
    <g id="line2d_44">
     <path d="M 66.6 293.004312 
L 86.6 293.004312 
" style="fill:none;stroke:#ff4500;stroke-linecap:square;stroke-width:2;"/>
    </g>
    <g id="line2d_45"/>
    <g id="text_22">
     <!-- quadratic -->
     <defs>
      <path d="M 14.796875 27.296875 
Q 14.796875 17.390625 18.875 11.75 
Q 22.953125 6.109375 30.078125 6.109375 
Q 37.203125 6.109375 41.296875 11.75 
Q 45.40625 17.390625 45.40625 27.296875 
Q 45.40625 37.203125 41.296875 42.84375 
Q 37.203125 48.484375 30.078125 48.484375 
Q 22.953125 48.484375 18.875 42.84375 
Q 14.796875 37.203125 14.796875 27.296875 
z
M 45.40625 8.203125 
Q 42.578125 3.328125 38.25 0.953125 
Q 33.9375 -1.421875 27.875 -1.421875 
Q 17.96875 -1.421875 11.734375 6.484375 
Q 5.515625 14.40625 5.515625 27.296875 
Q 5.515625 40.1875 11.734375 48.09375 
Q 17.96875 56 27.875 56 
Q 33.9375 56 38.25 53.625 
Q 42.578125 51.265625 45.40625 46.390625 
L 45.40625 54.6875 
L 54.390625 54.6875 
L 54.390625 -20.796875 
L 45.40625 -20.796875 
z
" id="DejaVuSans-71"/>
      <path d="M 8.5 21.578125 
L 8.5 54.6875 
L 17.484375 54.6875 
L 17.484375 21.921875 
Q 17.484375 14.15625 20.5 10.265625 
Q 23.53125 6.390625 29.59375 6.390625 
Q 36.859375 6.390625 41.078125 11.03125 
Q 45.3125 15.671875 45.3125 23.6875 
L 45.3125 54.6875 
L 54.296875 54.6875 
L 54.296875 0 
L 45.3125 0 
L 45.3125 8.40625 
Q 42.046875 3.421875 37.71875 1 
Q 33.40625 -1.421875 27.6875 -1.421875 
Q 18.265625 -1.421875 13.375 4.4375 
Q 8.5 10.296875 8.5 21.578125 
z
M 31.109375 56 
z
" id="DejaVuSans-75"/>
      <path d="M 48.78125 52.59375 
L 48.78125 44.1875 
Q 44.96875 46.296875 41.140625 47.34375 
Q 37.3125 48.390625 33.40625 48.390625 
Q 24.65625 48.390625 19.8125 42.84375 
Q 14.984375 37.3125 14.984375 27.296875 
Q 14.984375 17.28125 19.8125 11.734375 
Q 24.65625 6.203125 33.40625 6.203125 
Q 37.3125 6.203125 41.140625 7.25 
Q 44.96875 8.296875 48.78125 10.40625 
L 48.78125 2.09375 
Q 45.015625 0.34375 40.984375 -0.53125 
Q 36.96875 -1.421875 32.421875 -1.421875 
Q 20.0625 -1.421875 12.78125 6.34375 
Q 5.515625 14.109375 5.515625 27.296875 
Q 5.515625 40.671875 12.859375 48.328125 
Q 20.21875 56 33.015625 56 
Q 37.15625 56 41.109375 55.140625 
Q 45.0625 54.296875 48.78125 52.59375 
z
" id="DejaVuSans-63"/>
     </defs>
     <g transform="translate(94.6 296.504312)scale(0.1 -0.1)">
      <use xlink:href="#DejaVuSans-71"/>
      <use x="63.476562" xlink:href="#DejaVuSans-75"/>
      <use x="126.855469" xlink:href="#DejaVuSans-61"/>
      <use x="188.134766" xlink:href="#DejaVuSans-64"/>
      <use x="251.611328" xlink:href="#DejaVuSans-72"/>
      <use x="292.724609" xlink:href="#DejaVuSans-61"/>
      <use x="354.003906" xlink:href="#DejaVuSans-74"/>
      <use x="393.212891" xlink:href="#DejaVuSans-69"/>
      <use x="420.996094" xlink:href="#DejaVuSans-63"/>
     </g>
    </g>
   </g>
  </g>
 </g>
 <defs>
  <clipPath id="p2914f9fe14">
   <rect height="266.112" width="357.12" x="57.6" y="41.472"/>
  </clipPath>
 </defs>
</svg>
